<svg xmlns="http://www.w3.org/2000/svg" version="1.1" xmlns:xlink="http://www.w3.org/1999/xlink" xmlns:svgjs="http://svgjs.dev/svgjs" width="1000" height="1000" viewBox="0 0 1000 1000"><rect width="1000" height="1000" fill="#ffffff"></rect><g transform="matrix(0.7,0,0,0.7,149.57575757575756,282.1265587044535)"><svg viewBox="0 0 396 247" data-background-color="#ffffff" preserveAspectRatio="xMidYMid meet" height="623" width="1000" xmlns="http://www.w3.org/2000/svg" xmlns:xlink="http://www.w3.org/1999/xlink"><g id="tight-bounds" transform="matrix(1,0,0,1,0.2400000000000091,-0.09999999999999432)"><svg viewBox="0 0 395.52 247.2" height="247.2" width="395.52"><g><svg></svg></g><g><svg viewBox="0 0 395.52 247.2" height="247.2" width="395.52"><mask id="52c3edab-7de0-4546-b9e0-491e754c56a7"><rect width="640" height="400" fill="white"></rect><rect width="348.05760000000004" height="53.15044016925269" fill="black" y="97.02477991537364" x="23.731199999999973" id="transform-me"></rect></mask><g transform="matrix(1,0,0,1,39.55199999999999,105.548046068187)"><svg viewBox="0 0 316.416 36.10390786362596" height="36.10390786362596" width="316.416"><g><svg viewBox="0 0 316.416 36.10390786362596" height="36.10390786362596" width="316.416"><g><svg viewBox="0 0 316.416 36.10390786362596" height="36.10390786362596" width="316.416"><g id="textblocktransform"><svg viewBox="0 0 316.416 36.10390786362596" height="36.10390786362596" width="316.416" id="textblock"><g><svg viewBox="0 0 316.416 36.10390786362596" height="36.10390786362596" width="316.416"><g transform="matrix(1,0,0,1,0,0)"><svg width="316.416" viewBox="2.690000057220459 -36.040000915527344 320.07000732421875 36.53000259399414" height="36.10390786362596" data-palette-color="#0080ff"><path d="M17.11 0L2.69 0 2.69-35.55 15.45-35.55Q22.31-35.55 25.89-33.03 29.47-30.52 29.47-25.73L29.47-25.73Q29.47-22.97 28.2-21.02 26.93-19.07 24.46-18.14L24.46-18.14Q27.25-17.41 28.74-15.41 30.22-13.4 30.22-10.52L30.22-10.52Q30.22-5.3 26.92-2.67 23.61-0.05 17.11 0L17.11 0ZM17.26-15.11L11.25-15.11 11.25-6.59 16.87-6.59Q19.19-6.59 20.43-7.65 21.68-8.72 21.68-10.64L21.68-10.64Q21.68-15.09 17.26-15.11L17.26-15.11ZM11.25-28.93L11.25-20.73 15.72-20.73Q18.53-20.75 19.73-21.75 20.92-22.75 20.92-24.71L20.92-24.71Q20.92-26.95 19.63-27.94 18.33-28.93 15.45-28.93L15.45-28.93 11.25-28.93ZM65.04-18.68L65.04-17.04Q65.04-11.84 63.11-7.84 61.18-3.83 57.63-1.67 54.07 0.49 49.53 0.49 44.99 0.49 41.48-1.6 37.96-3.69 36-7.57 34.03-11.45 33.93-16.48L33.93-16.48 33.93-18.48Q33.93-23.71 35.85-27.7 37.77-31.69 41.34-33.86 44.92-36.04 49.48-36.04L49.48-36.04Q54-36.04 57.54-33.89 61.08-31.74 63.05-27.77 65.01-23.8 65.04-18.68L65.04-18.68ZM56.32-16.89L56.32-18.53Q56.32-23.83 54.55-26.57 52.78-29.32 49.48-29.32L49.48-29.32Q43.04-29.32 42.67-19.65L42.67-19.65 42.65-17.04Q42.65-11.82 44.38-9.01 46.12-6.2 49.53-6.2L49.53-6.2Q52.78-6.2 54.54-8.96 56.3-11.72 56.32-16.89L56.32-16.89ZM78.02-35.55L78.02-6.59 92.94-6.59 92.94 0 69.45 0 69.45-35.55 78.02-35.55ZM108.24 0L96.55 0 96.55-35.55 108-35.55Q112.71-35.55 116.47-33.41 120.23-31.27 122.34-27.38 124.46-23.49 124.48-18.65L124.48-18.65 124.48-17.02Q124.48-12.13 122.42-8.26 120.35-4.39 116.61-2.21 112.86-0.02 108.24 0L108.24 0ZM108-28.93L105.12-28.93 105.12-6.59 108.1-6.59Q111.78-6.59 113.76-9.22 115.74-11.84 115.74-17.02L115.74-17.02 115.74-18.55Q115.74-23.71 113.76-26.32 111.78-28.93 108-28.93L108-28.93ZM143.3 0L128.87 0 128.87-35.55 141.64-35.55Q148.5-35.55 152.08-33.03 155.65-30.52 155.65-25.73L155.65-25.73Q155.65-22.97 154.38-21.02 153.12-19.07 150.65-18.14L150.65-18.14Q153.43-17.41 154.92-15.41 156.41-13.4 156.41-10.52L156.41-10.52Q156.41-5.3 153.1-2.67 149.79-0.05 143.3 0L143.3 0ZM143.45-15.11L137.44-15.11 137.44-6.59 143.06-6.59Q145.38-6.59 146.62-7.65 147.87-8.72 147.87-10.64L147.87-10.64Q147.87-15.09 143.45-15.11L143.45-15.11ZM137.44-28.93L137.44-20.73 141.91-20.73Q144.72-20.75 145.91-21.75 147.11-22.75 147.11-24.71L147.11-24.71Q147.11-26.95 145.82-27.94 144.52-28.93 141.64-28.93L141.64-28.93 137.44-28.93ZM183.39 0L181.31-6.64 169.57-6.64 167.52 0 158.36 0 171.4-35.55 179.46-35.55 192.59 0 183.39 0ZM175.43-25.59L171.62-13.26 179.26-13.26 175.43-25.59ZM221.62-31.15L204.79-6.59 221.79-6.59 221.79 0 194.1 0 194.1-4.52 211.04-28.93 194-28.93 194-35.55 221.62-35.55 221.62-31.15ZM248.25 0L246.17-6.64 234.43-6.64 232.38 0 223.22 0 236.26-35.55 244.32-35.55 257.45 0 248.25 0ZM240.29-25.59L236.48-13.26 244.12-13.26 240.29-25.59ZM282.3 0L280.23-6.64 268.49-6.64 266.44 0 257.28 0 270.32-35.55 278.37-35.55 291.51 0 282.3 0ZM274.35-25.59L270.54-13.26 278.18-13.26 274.35-25.59ZM313.58 0L307.3-12.55 302.66-12.55 302.66 0 294.09 0 294.09-35.55 308.08-35.55Q314.41-35.55 317.97-32.74 321.54-29.93 321.54-24.8L321.54-24.8Q321.54-21.09 320.03-18.65 318.53-16.21 315.33-14.7L315.33-14.7 322.76-0.37 322.76 0 313.58 0ZM302.66-28.93L302.66-19.17 308.08-19.17Q310.52-19.17 311.76-20.45 312.99-21.73 312.99-24.02 312.99-26.32 311.75-27.62 310.5-28.93 308.08-28.93L308.08-28.93 302.66-28.93Z" opacity="1" transform="matrix(1,0,0,1,0,0)" fill="#000000" class="wordmark-text-0" data-fill-palette-color="primary" id="text-0"></path></svg></g></svg></g></svg></g></svg></g><g></g></svg></g></svg></g><g mask="url(#52c3edab-7de0-4546-b9e0-491e754c56a7)"><g transform="matrix(5.239978778470778, 0, 0, 5.239978778470778, 69.76041958824102, 0.9999999999999858)"><svg xmlns="http://www.w3.org/2000/svg" xmlns:xlink="http://www.w3.org/1999/xlink" version="1.1" x="0" y="0" viewBox="0.5719999670982361 1.6030000448226929 48.85499954223633 46.79408264160156" enable-background="new 0 0 50 50" xml:space="preserve" height="46.79408264160156" width="48.85499954223633" class="icon-none" data-fill-palette-color="accent" id="none"><g fill="#0023ff" data-fill-palette-color="accent"><g fill="#0023ff" data-fill-palette-color="accent"><g fill="#0023ff" data-fill-palette-color="accent"><line fill="#000000" x1="42.187" y1="30.881" x2="16.181" y2="39.004" data-fill-palette-color="accent"></line><polygon fill="#000000" points="41.73,29.426 15.726,37.543 16.637,40.461 42.643,32.338    " data-fill-palette-color="accent"></polygon></g><g fill="#0023ff" data-fill-palette-color="accent"><path fill="#000000" d="M18.572 42.535c0.061 0.605-0.122 1.195-0.513 1.664-0.388 0.471-0.934 0.756-1.539 0.814-1.254 0.119-2.364-0.807-2.485-2.057-0.055-0.605 0.129-1.199 0.516-1.666 0.388-0.469 0.935-0.758 1.542-0.813 0.607-0.059 1.196 0.123 1.666 0.514C18.229 41.379 18.515 41.926 18.572 42.535zM15.808 37.434c-1.421 0.137-2.701 0.816-3.609 1.91-0.905 1.096-1.334 2.48-1.201 3.9 0.276 2.928 2.881 5.082 5.807 4.811 1.42-0.133 2.7-0.811 3.605-1.908 0.913-1.098 1.338-2.482 1.204-3.898-0.13-1.416-0.811-2.699-1.907-3.607C18.611 37.732 17.226 37.303 15.808 37.434z" data-fill-palette-color="accent"></path></g><g fill="#0023ff" data-fill-palette-color="accent"><line fill="#000000" x1="13.436" y1="30.992" x2="39.554" y2="39.439" data-fill-palette-color="accent"></line><rect x="12.773" y="33.689" transform="matrix(-0.9514 -0.3078 0.3078 -0.9514 40.8641 76.8801)" fill="#000000" width="27.446" height="3.055" data-fill-palette-color="accent"></rect></g><g fill="#0023ff" data-fill-palette-color="accent"><path fill="#000000" d="M32.707 42.547c-0.14 1.416 0.282 2.803 1.186 3.902 0.902 1.1 2.179 1.783 3.599 1.922 2.926 0.289 5.538-1.857 5.828-4.781 0.286-2.928-1.862-5.541-4.786-5.83-1.416-0.137-2.801 0.281-3.903 1.188C33.529 39.846 32.847 41.129 32.707 42.547zM38.236 40.795c1.249 0.127 2.167 1.244 2.044 2.494-0.123 1.248-1.241 2.168-2.491 2.049-0.604-0.063-1.15-0.357-1.538-0.824-0.388-0.473-0.565-1.068-0.505-1.674 0.058-0.604 0.353-1.148 0.822-1.537C37.034 40.918 37.63 40.738 38.236 40.795z" data-fill-palette-color="accent"></path></g><g fill="#0023ff" data-fill-palette-color="accent"><polygon fill="#000000" points="11.115,19.867 5.497,2.681 5.155,1.64 4.058,1.63 0.6,1.603 0.572,4.656 4.033,4.685 2.594,3.63      8.214,20.812    " data-fill-palette-color="accent"></polygon></g><g fill="#0023ff" data-fill-palette-color="accent"><polygon fill="#000000" points="17.158,26.744 37.898,26.744 40.767,19.382 15.07,19.474    " data-fill-palette-color="accent"></polygon><path fill="#000000" d="M5.756 13.544L12.45 32.75l29.955-0.223 7.022-18.983H5.756zM40.365 28.826l-0.379 0.973h-1.044H16.009h-1.149l-0.318-1.104L11.579 18.38l-0.558-1.939 2.021-0.008 29.954-0.109 2.243-0.01-0.815 2.088L40.365 28.826z" data-fill-palette-color="accent"></path></g></g><g fill="#0023ff" data-fill-palette-color="accent"><path fill-rule="evenodd" clip-rule="evenodd" fill="#000000" d="M32.577 11.763h3.868L32.577 8.57l-3.866-3.191L24.847 8.57l-3.865 3.193h3.81H32.577z" data-fill-palette-color="accent"></path></g></g></svg></g></g></svg></g><defs></defs></svg><rect width="395.52" height="247.2" fill="none" stroke="none" visibility="hidden"></rect></g></svg></g></svg>